SCREENSHOTS:
 
http://lnk.co/GX77B

Video
ID                               : 1
Format                           : AVC
Format/Info                      : Advanced Video Codec
Format profile                   : Baseline@L2.1
Format settings, CABAC           : No
Format settings, ReFrames        : 2 frames
Codec ID                         : avc1
Codec ID/Info                    : Advanced Video Coding
Duration                         : 28mn 52s
Bit rate mode                    : Variable
Bit rate                         : 400 Kbps
Width                            : 416 pixels
Height                           : 272 pixels
Display aspect ratio             : 3:2
Frame rate mode                  : Variable
Frame rate                       : 23.976 fps
Minimum frame rate               : 23.974 fps
Maximum frame rate               : 23.981 fps
Color space                      : YUV
Chroma subsampling               : 4:2:0
Bit depth                        : 8 bits
Scan type                        : Progressive
Bits/(Pixel*Frame)               : 0.147
Stream size                      : 82.6 MiB (87%)
Writing library                  : x264 core 112

Audio
ID                               : 2
Format                           : AAC
Format/Info                      : Advanced Audio Codec
Format profile                   : LC
Codec ID                         : 40
Duration                         : 28mn 52s
Bit rate mode                    : Variable
Bit rate                         : 58.3 Kbps
Maximum bit rate                 : 65.0 Kbps
Channel(s)                       : 2 channels
Channel positions                : Front: L R
Sampling rate                    : 48.0 KHz
Compression mode                 : Lossy
Stream size                      : 12.0 MiB (13%)
Language                         : English

encoded for iPod,PSP,Zune and other handheld devices...:)